<svg xmlns="http://www.w3.org/2000/svg" xmlns:xlink="http://www.w3.org/1999/xlink" width="500" zoomAndPan="magnify" viewBox="0 0 375 374.999991" height="500" preserveAspectRatio="xMidYMid meet" version="1.0">
        <defs>
                <g/>
                <clipPath id="0d89aa5436">
                        <path d="M 28.257812 143.695312 L 346.246094 143.695312 L 346.246094 231.292969 L 28.257812 231.292969 Z M 28.257812 143.695312 " clip-rule="nonzero"/>
                </clipPath>
                <clipPath id="c4c2146300">
                        <path d="M 36.839844 151.929688 L 187.296875 151.929688 L 187.296875 223.070312 L 36.839844 223.070312 Z M 36.839844 151.929688 " clip-rule="nonzero"/>
                </clipPath>
                <clipPath id="52bbfbaace">
                        <path d="M 0.839844 0.929688 L 151.296875 0.929688 L 151.296875 72.070312 L 0.839844 72.070312 Z M 0.839844 0.929688 " clip-rule="nonzero"/>
                </clipPath>
                <clipPath id="16a7836e02">
                        <rect x="0" width="152" y="0" height="73"/>
                </clipPath>
                <clipPath id="7f5a22fddf">
                        <rect x="0" width="103" y="0" height="51"/>
                </clipPath>
                <clipPath id="1ea4901bfa">
                        <rect x="0" width="122" y="0" height="51"/>
                </clipPath>
        </defs>
        <rect x="-37.5" width="450" fill="#ffffff" y="-37.499999" height="449.999989" fill-opacity="1"/>
        <rect x="-37.5" width="450" fill="#000000" y="-37.499999" height="449.999989" fill-opacity="1"/>
        <g clip-path="url(#0d89aa5436)">
                <path stroke-linecap="butt" transform="matrix(0.75, 0, 0, 0.75, 28.258928, 143.695743)" fill="none" stroke-linejoin="miter" d="M -0.00148723 -0.000573419 L 424.087055 -0.000573419 L 424.087055 116.796302 L -0.00148723 116.796302 Z M -0.00148723 -0.000573419 " stroke="#ffffff" stroke-width="6" stroke-opacity="1" stroke-miterlimit="4"/>
        </g>
        <g clip-path="url(#c4c2146300)">
                <g transform="matrix(1, 0, 0, 1, 36, 151)">
                        <g clip-path="url(#16a7836e02)">
                                <g clip-path="url(#52bbfbaace)">
                                        <path fill="#ffffff" d="M 0.839844 0.929688 L 151.183594 0.929688 L 151.183594 72.070312 L 0.839844 72.070312 Z M 0.839844 0.929688 " fill-opacity="1" fill-rule="nonzero"/>
                                </g>
                        </g>
                </g>
        </g>
        <g transform="matrix(1, 0, 0, 1, 62, 162)">
                <g clip-path="url(#7f5a22fddf)">
                        <g fill="#000000" fill-opacity="1">
                                <g transform="translate(1.335677, 41.142532)">
                                        <g>
                                                <path d="M 12.25 0.3125 C 9.957031 0.3125 7.984375 -0.25 6.328125 -1.375 C 4.679688 -2.507812 3.429688 -4.019531 2.578125 -5.90625 C 1.722656 -7.789062 1.296875 -9.835938 1.296875 -12.046875 C 1.296875 -14.253906 1.722656 -16.296875 2.578125 -18.171875 C 3.429688 -20.054688 4.679688 -21.5625 6.328125 -22.6875 C 7.984375 -23.8125 9.957031 -24.375 12.25 -24.375 C 15.050781 -24.375 17.335938 -23.550781 19.109375 -21.90625 C 20.890625 -20.269531 22.039062 -18.15625 22.5625 -15.5625 L 17.40625 -15.5625 C 17.132812 -16.75 16.550781 -17.738281 15.65625 -18.53125 C 14.757812 -19.332031 13.648438 -19.734375 12.328125 -19.734375 C 10.503906 -19.734375 9.128906 -19.019531 8.203125 -17.59375 C 7.285156 -16.175781 6.828125 -14.328125 6.828125 -12.046875 C 6.828125 -9.722656 7.285156 -7.851562 8.203125 -6.4375 C 9.128906 -5.03125 10.503906 -4.328125 12.328125 -4.328125 C 13.617188 -4.328125 14.703125 -4.710938 15.578125 -5.484375 C 16.460938 -6.265625 17.050781 -7.191406 17.34375 -8.265625 L 22.4375 -8.265625 C 21.925781 -5.753906 20.789062 -3.695312 19.03125 -2.09375 C 17.269531 -0.488281 15.007812 0.3125 12.25 0.3125 Z M 12.25 0.3125 "/></g></g></g><g fill="#000000" fill-opacity="1"><g transform="translate(27.652064, 41.142532)"><g><path d="M 21.4375 -23.890625 L 21.4375 0 L 16.078125 0 L 16.078125 -9.90625 L 7.09375 -9.90625 L 7.09375 0 L 1.78125 0 L 1.78125 -23.890625 L 7.09375 -23.890625 L 7.09375 -14.0625 L 16.078125 -14.0625 L 16.078125 -23.890625 Z M 21.4375 -23.890625 "/></g></g></g><g fill="#000000" fill-opacity="1"><g transform="translate(53.456472, 41.142532)"><g><path d="M 2.015625 -23.890625 L 7.375 -23.890625 L 7.375 0 L 2.015625 0 Z M 2.015625 -23.890625 "/>
                                                </g>
                                                </g>
                                                </g>
                        <g fill="#000000" fill-opacity="1">
                                <g transform="translate(65.471781, 41.142532)">
                                        <g>
                                                <path d="M 1.78125 -23.890625 L 12.015625 -23.890625 C 13.472656 -23.890625 14.710938 -23.617188 15.734375 -23.078125 C 16.765625 -22.535156 17.53125 -21.800781 18.03125 -20.875 C 18.53125 -19.957031 18.78125 -18.941406 18.78125 -17.828125 C 18.78125 -16.484375 18.4375 -15.382812 17.75 -14.53125 C 17.070312 -13.675781 16.273438 -13.125 15.359375 -12.875 L 15.359375 -12.625 C 16.046875 -12.539062 16.757812 -12.28125 17.5 -11.84375 C 18.238281 -11.414062 18.867188 -10.785156 19.390625 -9.953125 C 19.910156 -9.117188 20.171875 -8.113281 20.171875 -6.9375 C 20.171875 -5.789062 19.914062 -4.679688 19.40625 -3.609375 C 18.894531 -2.546875 18.082031 -1.671875 16.96875 -0.984375 C 15.851562 -0.304688 14.460938 0.03125 12.796875 0.03125 L 1.78125 0.03125 Z M 10.40625 -14.171875 C 11.34375 -14.171875 12.140625 -14.382812 12.796875 -14.8125 C 13.460938 -15.25 13.796875 -15.96875 13.796875 -16.96875 C 13.796875 -17.945312 13.457031 -18.644531 12.78125 -19.0625 C 12.113281 -19.488281 11.320312 -19.703125 10.40625 -19.703125 L 7 -19.703125 L 7 -14.171875 Z M 11.609375 -4.203125 C 12.535156 -4.203125 13.351562 -4.425781 14.0625 -4.875 C 14.769531 -5.332031 15.125 -6.128906 15.125 -7.265625 C 15.125 -8.378906 14.765625 -9.175781 14.046875 -9.65625 C 13.328125 -10.132812 12.515625 -10.375 11.609375 -10.375 L 7 -10.375 L 7 -4.203125 Z M 11.609375 -4.203125 "/></g></g></g><g fill="#000000" fill-opacity="1"><g transform="translate(89.36483, 41.142532)"><g><path d="M 2.015625 -23.890625 L 7.375 -23.890625 L 7.375 0 L 2.015625 0 Z M 2.015625 -23.890625 "/></g></g></g></g></g><g transform="matrix(1, 0, 0, 1, 206, 162)"><g clip-path="url(#1ea4901bfa)"><g fill="#ffffff" fill-opacity="1"><g transform="translate(0.656129, 41.142532)"><g><path d="M 10.453125 0.265625 C 8.609375 0.265625 7.03125 -0.113281 5.71875 -0.875 C 4.40625 -1.632812 3.421875 -2.617188 2.765625 -3.828125 C 2.109375 -5.035156 1.78125 -6.296875 1.78125 -7.609375 L 1.78125 -7.78125 L 5.015625 -7.78125 L 5.015625 -7.609375 C 5.015625 -6.816406 5.203125 -6.019531 5.578125 -5.21875 C 5.953125 -4.425781 6.550781 -3.757812 7.375 -3.21875 C 8.195312 -2.6875 9.242188 -2.421875 10.515625 -2.421875 C 12.015625 -2.421875 13.253906 -2.804688 14.234375 -3.578125 C 15.210938 -4.359375 15.703125 -5.40625 15.703125 -6.71875 C 15.703125 -7.8125 15.34375 -8.679688 14.625 -9.328125 C 13.90625 -9.984375 12.988281 -10.425781 11.875 -10.65625 L 8.40625 -11.296875 C 4.394531 -12.179688 2.390625 -14.285156 2.390625 -17.609375 C 2.390625 -18.984375 2.71875 -20.179688 3.375 -21.203125 C 4.039062 -22.222656 4.957031 -23.007812 6.125 -23.5625 C 7.300781 -24.125 8.660156 -24.40625 10.203125 -24.40625 C 11.960938 -24.40625 13.46875 -24.050781 14.71875 -23.34375 C 15.96875 -22.644531 16.910156 -21.726562 17.546875 -20.59375 C 18.179688 -19.46875 18.5 -18.304688 18.5 -17.109375 L 18.5 -16.96875 L 15.265625 -16.96875 L 15.265625 -17.0625 C 15.265625 -17.75 15.097656 -18.453125 14.765625 -19.171875 C 14.429688 -19.890625 13.882812 -20.507812 13.125 -21.03125 C 12.363281 -21.550781 11.359375 -21.8125 10.109375 -21.8125 C 8.671875 -21.8125 7.523438 -21.410156 6.671875 -20.609375 C 5.816406 -19.816406 5.390625 -18.832031 5.390625 -17.65625 C 5.390625 -16.65625 5.71875 -15.832031 6.375 -15.1875 C 7.039062 -14.550781 7.941406 -14.117188 9.078125 -13.890625 L 12.21875 -13.28125 C 16.613281 -12.394531 18.8125 -10.242188 18.8125 -6.828125 C 18.8125 -5.441406 18.460938 -4.210938 17.765625 -3.140625 C 17.078125 -2.066406 16.09375 -1.226562 14.8125 -0.625 C 13.539062 -0.03125 12.085938 0.265625 10.453125 0.265625 Z M 10.453125 0.265625 "/>
                                                </g>
                                                </g>
                                                </g>
                                                        <g fill="#ffffff" fill-opacity="1">
                                                                <g transform="translate(21.100866, 41.142532)">
                                                                        <g>
                                                                                <path d="M 18.53125 -21.234375 L 11.5 -21.234375 L 11.5 0 L 8.5625 0 L 8.5625 -21.234375 L 1.53125 -21.234375 L 1.53125 -23.890625 L 18.53125 -23.890625 Z M 18.53125 -21.234375 "/></g></g></g><g fill="#ffffff" fill-opacity="1"><g transform="translate(41.204289, 41.142532)"><g><path d="M 11.703125 0.3125 C 8.660156 0.3125 6.316406 -0.625 4.671875 -2.5 C 3.035156 -4.382812 2.21875 -7.054688 2.21875 -10.515625 L 2.21875 -23.890625 L 5.125 -23.890625 L 5.125 -10.625 C 5.125 -8.613281 5.5625 -6.757812 6.4375 -5.0625 C 7.3125 -3.375 9.066406 -2.53125 11.703125 -2.53125 C 14.304688 -2.53125 16.039062 -3.367188 16.90625 -5.046875 C 17.769531 -6.734375 18.203125 -8.59375 18.203125 -10.625 L 18.203125 -23.890625 L 21.09375 -23.890625 L 21.09375 -10.515625 C 21.09375 -7.054688 20.28125 -4.382812 18.65625 -2.5 C 17.03125 -0.625 14.710938 0.3125 11.703125 0.3125 Z M 11.703125 0.3125 "/></g></g></g><g fill="#ffffff" fill-opacity="1"><g transform="translate(64.550191, 41.142532)"><g><path d="M 2.5625 -23.890625 L 11.296875 -23.890625 C 13.441406 -23.890625 15.316406 -23.40625 16.921875 -22.4375 C 18.523438 -21.476562 19.765625 -20.101562 20.640625 -18.3125 C 21.515625 -16.53125 21.953125 -14.421875 21.953125 -11.984375 C 21.953125 -9.546875 21.515625 -7.421875 20.640625 -5.609375 C 19.765625 -3.804688 18.515625 -2.421875 16.890625 -1.453125 C 15.273438 -0.484375 13.398438 0 11.265625 0 L 2.5625 0 Z M 10.859375 -2.734375 C 13.265625 -2.734375 15.195312 -3.523438 16.65625 -5.109375 C 18.113281 -6.691406 18.84375 -8.984375 18.84375 -11.984375 C 18.84375 -14.984375 18.117188 -17.273438 16.671875 -18.859375 C 15.234375 -20.441406 13.296875 -21.234375 10.859375 -21.234375 L 5.421875 -21.234375 L 5.421875 -2.734375 Z M 10.859375 -2.734375 "/></g></g></g><g fill="#ffffff" fill-opacity="1"><g transform="translate(87.998494, 41.142532)"><g><path d="M 2.65625 -23.890625 L 5.640625 -23.890625 L 5.640625 0 L 2.65625 0 Z M 2.65625 -23.890625 "/></g></g></g><g fill="#ffffff" fill-opacity="1"><g transform="translate(96.29244, 41.142532)"><g><path d="M 12.5625 0.234375 C 10.289062 0.234375 8.335938 -0.285156 6.703125 -1.328125 C 5.078125 -2.378906 3.84375 -3.835938 3 -5.703125 C 2.15625 -7.566406 1.734375 -9.679688 1.734375 -12.046875 C 1.734375 -14.421875 2.160156 -16.546875 3.015625 -18.421875 C 3.867188 -20.296875 5.109375 -21.757812 6.734375 -22.8125 C 8.367188 -23.875 10.3125 -24.40625 12.5625 -24.40625 C 14.789062 -24.40625 16.710938 -23.875 18.328125 -22.8125 C 19.941406 -21.757812 21.171875 -20.300781 22.015625 -18.4375 C 22.859375 -16.570312 23.28125 -14.429688 23.28125 -12.015625 C 23.28125 -9.628906 22.859375 -7.515625 22.015625 -5.671875 C 21.171875 -3.828125 19.941406 -2.378906 18.328125 -1.328125 C 16.710938 -0.285156 14.789062 0.234375 12.5625 0.234375 Z M 12.53125 -2.5 C 14.101562 -2.5 15.46875 -2.898438 16.625 -3.703125 C 17.789062 -4.515625 18.679688 -5.644531 19.296875 -7.09375 C 19.910156 -8.550781 20.21875 -10.210938 20.21875 -12.078125 C 20.21875 -13.953125 19.910156 -15.613281 19.296875 -17.0625 C 18.679688 -18.519531 17.789062 -19.660156 16.625 -20.484375 C 15.46875 -21.304688 14.101562 -21.71875 12.53125 -21.71875 C 10.957031 -21.71875 9.585938 -21.300781 8.421875 -20.46875 C 7.265625 -19.632812 6.378906 -18.488281 5.765625 -17.03125 C 5.148438 -15.570312 4.84375 -13.921875 4.84375 -12.078125 C 4.84375 -10.210938 5.148438 -8.554688 5.765625 -7.109375 C 6.378906 -5.671875 7.265625 -4.539062 8.421875 -3.71875 C 9.585938 -2.90625 10.957031 -2.5 12.53125 -2.5 Z M 12.53125 -2.5 "/>
                                                                                </g>
                                                                                </g>
                                                                                </g>
                                                </g>
                                                </g>
</svg>
